<?xml version="1.0" encoding="UTF-8"?>
<svg version="1.1" xmlns="http://www.w3.org/2000/svg" width="325" height="325">
<path d="M0 0 C1.22251465 0.29801514 1.22251465 0.29801514 2.46972656 0.60205078 C44.65392513 11.05027065 80.80289733 37.1718529 104 74 C117.41126392 96.3190971 126.95522799 122.74968225 127.23828125 149.00390625 C127.24812042 149.75582748 127.25795959 150.50774872 127.26809692 151.28245544 C127.78827514 201.37974324 111.84087726 242.35864964 76.72265625 278.40234375 C73.04789162 282.05054737 69.12312632 285.2493888 65 288.375 C64.26088379 288.93590332 63.52176758 289.49680664 62.76025391 290.07470703 C26.94334778 316.83974592 -16.3815343 326.58332821 -60.53125 321.33984375 C-100.7801542 315.31868282 -139.76997069 292.45753789 -164.375 260 C-164.93590332 259.26088379 -165.49680664 258.52176758 -166.07470703 257.76025391 C-192.83974592 221.94334778 -202.58332821 178.6184657 -197.33984375 134.46875 C-191.31868282 94.2198458 -168.45753789 55.23002931 -136 30.625 C-135.26088379 30.06409668 -134.52176758 29.50319336 -133.76025391 28.92529297 C-96.67569707 1.2129718 -45.47902387 -11.66854624 0 0 Z " fill="#8CC1FD" transform="translate(198,3)"/>
<path d="M0 0 C4.29 0 8.58 0 13 0 C13.33 32.67 13.66 65.34 14 99 C29.22960062 92.98708963 29.22960062 92.98708963 44.1875 86.4375 C50.28734886 83.64699029 56.40859026 80.95795973 62.625 78.4375 C68.54512938 76.03460346 74.4126168 73.53530764 80.25 70.9375 C81.37825195 70.43645752 81.37825195 70.43645752 82.52929688 69.92529297 C85.95689845 68.39398718 89.36600599 66.83714177 92.7421875 65.1953125 C98.61799777 62.35918237 103.44217796 60.25716949 110 60 C110 64.95 110 69.9 110 75 C86.41913505 85.96149388 86.41913505 85.96149388 74.58984375 90.5625 C70.57328641 92.17087117 66.63236435 93.91233303 62.6875 95.6875 C54.88937041 99.18724992 47.05020679 102.58535203 39.1875 105.9375 C38.05981201 106.4224292 36.93212402 106.9073584 35.77026367 107.40698242 C34.70525635 107.85920166 33.64024902 108.3114209 32.54296875 108.77734375 C31.59446045 109.18202881 30.64595215 109.58671387 29.66870117 110.00366211 C27.11157576 110.9583441 24.68730045 111.54942553 22 112 C22 112.66 22 113.32 22 114 C23.19109375 114.36158203 23.19109375 114.36158203 24.40625 114.73046875 C28.9097798 116.3213896 33.17037986 118.3030383 37.5 120.3125 C46.47829534 124.43196211 55.49937824 128.446128 64.5625 132.375 C65.18522797 132.64506866 65.80795593 132.91513733 66.44955444 133.19338989 C77.62002374 138.0303346 88.85428275 142.70857695 100.12524414 147.30615234 C101.27629639 147.77746582 102.42734863 148.2487793 103.61328125 148.734375 C104.63204346 149.14913086 105.65080566 149.56388672 106.70043945 149.99121094 C109 151 109 151 110 152 C110.07325436 154.6986905 110.09222351 157.36502556 110.0625 160.0625 C110.05101098 161.47843153 110.03988482 162.89436603 110.02905273 164.31030273 C110.01946533 165.52790283 110.00987793 166.74550293 110 168 C97.10700919 163.36254082 84.55819459 158.03376646 72 152.5625 C70.08869546 151.73336934 68.17723772 150.90459176 66.265625 150.07617188 C56.61579312 145.89141868 46.97619031 141.6832954 37.34179688 137.46313477 C34.58849491 136.25765999 31.83400202 135.05504011 29.078125 133.85546875 C28.09972656 133.42911133 28.09972656 133.42911133 27.1015625 132.99414062 C25.82063817 132.43610081 24.53936494 131.87886144 23.2578125 131.32226562 C20.12421549 129.9552815 17.05985225 128.52992613 14 127 C13.67 153.4 13.34 179.8 13 207 C8.71 207 4.42 207 0 207 C0 138.69 0 70.38 0 0 Z " fill="#030406" transform="translate(116,56)"/>
<path d="M0 0 C7.45417776 3.28909396 12.47170437 10.40965808 17.265625 16.75390625 C20.58369051 21.05095054 24.16077688 25.16077688 28 29 C32.91475581 24.36169921 37.12989319 19.43202142 41.203125 14.0390625 C43 12 43 12 46 11 C46.70710678 9.35008418 47.36562656 7.6792238 48 6 C49.29788956 3.97681922 50.62464661 1.97133986 52 0 C56.95245213 0.15007431 59.36965314 2.86069058 62.7421875 6.11328125 C64 8 64 8 64.01171875 9.84765625 C62.51185723 13.03848133 60.25506262 15.50894301 57.9375 18.125 C56.92337505 19.29461649 55.91036101 20.46519711 54.8984375 21.63671875 C54.40053711 22.21083496 53.90263672 22.78495117 53.38964844 23.37646484 C51.55588858 25.51885821 49.80513263 27.72060659 48.0625 29.9375 C44.70044393 34.1696534 41.24801654 38.31761386 37.75 42.4375 C37.24218994 43.04134521 36.73437988 43.64519043 36.21118164 44.26733398 C35.72383545 44.83782471 35.23648926 45.40831543 34.734375 45.99609375 C34.30350586 46.50325928 33.87263672 47.0104248 33.42871094 47.53295898 C31.75961318 49.24683602 29.94114069 50.60736369 28 52 C22.43407731 47.4087426 17.73160901 42.58144273 13.25 36.9375 C12.0441831 35.44563225 10.83712849 33.95476414 9.62890625 32.46484375 C9.02836426 31.72218262 8.42782227 30.97952148 7.80908203 30.21435547 C4.98936041 26.76295532 2.09502729 23.3774978 -0.8125 20 C-1.32200195 19.40695068 -1.83150391 18.81390137 -2.35644531 18.20288086 C-4.61443374 15.54309905 -4.61443374 15.54309905 -7 13 C-7.5 10.375 -7.5 10.375 -7 7 C-4.90760132 4.38450165 -2.53305546 2.18411415 0 0 Z " fill="#040609" transform="translate(143,224)"/>
<path d="M0 0 C4.20729037 1.36074951 6.37365429 3.10839617 9.25 6.4375 C10.03246094 7.33855469 10.81492188 8.23960938 11.62109375 9.16796875 C14.62711388 12.74656414 17.5907682 16.35642729 20.52734375 19.9921875 C22.36936644 22.23287861 24.2305545 24.44077085 26.12890625 26.6328125 C26.66668701 27.25381836 27.20446777 27.87482422 27.75854492 28.51464844 C28.81147096 29.7264437 29.86747631 30.93557237 30.92700195 32.14160156 C36.48451689 38.54099656 36.48451689 38.54099656 38 42 C37.07086662 45.34488015 35.01280011 47.10068139 32.375 49.25 C31.42753906 50.03117187 31.42753906 50.03117187 30.4609375 50.828125 C29.97882813 51.21484375 29.49671875 51.6015625 29 52 C24.84659185 50.43761983 22.48014012 47.39977884 19.75 44.0625 C19.29109375 43.52431641 18.8321875 42.98613281 18.359375 42.43164062 C15 38.3773949 15 38.3773949 15 35 C14.443125 34.79375 13.88625 34.5875 13.3125 34.375 C10.00396768 32.40776457 8.2844372 30.10937286 6 27 C6 26.01 6 25.02 6 24 C2.75643424 23.24586647 2.75643424 23.24586647 -1 24 C-2.82304194 26.02000376 -4.090697 28.15372781 -5.47265625 30.49609375 C-7.85637976 34.40393715 -10.92998694 37.62431465 -14 41 C-15.27439703 42.4343416 -16.5453065 43.87179037 -17.8125 45.3125 C-18.37582031 45.94800781 -18.93914062 46.58351562 -19.51953125 47.23828125 C-21.17386163 49.14093438 -21.17386163 49.14093438 -23 52 C-27.6382992 50.49937379 -30.65849848 48.50062064 -34 45 C-34.2620021 40.89530047 -33.17688772 39.24076384 -30.75 35.9375 C-29.13895866 34.13292447 -27.44097926 32.45053517 -25.71484375 30.75390625 C-22.61357719 27.60801715 -19.70263154 24.33902523 -16.8125 21 C-16.25022705 20.351521 -15.6879541 19.70304199 -15.10864258 19.03491211 C-9.8176528 12.88017892 -4.85625569 6.50058605 0 0 Z " fill="#040708" transform="translate(169,63)"/>
</svg>
